<?xml version="1.0" encoding="UTF-8" standalone="no"?>
<!DOCTYPE svg PUBLIC "-//W3C//DTD SVG 1.1//EN"
 "http://www.w3.org/Graphics/SVG/1.1/DTD/svg11.dtd">
<!-- Generated by graphviz version 5.0.0 (0)
 -->
<!-- Pages: 1 -->
<svg width="346pt" height="98pt"
 viewBox="0.00 0.00 346.48 98.00" xmlns="http://www.w3.org/2000/svg" xmlns:xlink="http://www.w3.org/1999/xlink">
<g id="graph0" class="graph" transform="scale(1 1) rotate(0) translate(4 94)">
<polygon fill="white" stroke="transparent" points="-4,4 -4,-94 342.48,-94 342.48,4 -4,4"/>
<!-- input -->
<g id="node1" class="node">
<title>input</title>
<ellipse fill="none" stroke="black" cx="35.1" cy="-18" rx="35.19" ry="18"/>
<text text-anchor="middle" x="35.1" y="-14.3" font-family="Times,serif" font-size="14.00">input</text>
</g>
<!-- pandoc -->
<g id="node2" class="node">
<title>pandoc</title>
<ellipse fill="none" stroke="black" cx="150.39" cy="-18" rx="44.39" ry="18"/>
<text text-anchor="middle" x="150.39" y="-14.3" font-family="Times,serif" font-size="14.00">pandoc</text>
</g>
<!-- input&#45;&gt;pandoc -->
<g id="edge1" class="edge">
<title>input&#45;&gt;pandoc</title>
<path fill="none" stroke="black" d="M70.4,-18C78.45,-18 87.22,-18 95.89,-18"/>
<polygon fill="black" stroke="black" points="95.97,-21.5 105.97,-18 95.97,-14.5 95.97,-21.5"/>
</g>
<!-- output -->
<g id="node3" class="node">
<title>output</title>
<ellipse fill="none" stroke="black" cx="284.53" cy="-18" rx="41.69" ry="18"/>
<text text-anchor="middle" x="284.53" y="-14.3" font-family="Times,serif" font-size="14.00">output</text>
</g>
<!-- pandoc&#45;&gt;output -->
<g id="edge2" class="edge">
<title>pandoc&#45;&gt;output</title>
<path fill="none" stroke="black" d="M194.66,-18C206.77,-18 220.05,-18 232.57,-18"/>
<polygon fill="black" stroke="black" points="232.86,-21.5 242.86,-18 232.86,-14.5 232.86,-21.5"/>
</g>
<!-- panda -->
<g id="node4" class="node">
<title>panda</title>
<ellipse fill="none" stroke="black" cx="150.39" cy="-72" rx="38.99" ry="18"/>
<text text-anchor="middle" x="150.39" y="-68.3" font-family="Times,serif" font-size="14.00">panda</text>
</g>
<!-- pandoc&#45;&gt;panda -->
<g id="edge3" class="edge">
<title>pandoc&#45;&gt;panda</title>
<path fill="none" stroke="black" d="M176.73,-32.77C183.22,-38.6 185.07,-44.43 182.28,-50.26"/>
<polygon fill="black" stroke="black" points="179.36,-48.3 175.61,-58.21 184.72,-52.8 179.36,-48.3"/>
</g>
<!-- panda&#45;&gt;pandoc -->
<g id="edge4" class="edge">
<title>panda&#45;&gt;pandoc</title>
<path fill="none" stroke="black" d="M125.17,-58.21C118.33,-52.51 115.92,-46.81 117.93,-41.11"/>
<polygon fill="black" stroke="black" points="120.96,-42.9 124.05,-32.77 115.31,-38.76 120.96,-42.9"/>
</g>
<!-- diagrams -->
<g id="node5" class="node">
<title>diagrams</title>
<ellipse fill="none" stroke="black" cx="284.53" cy="-72" rx="53.89" ry="18"/>
<text text-anchor="middle" x="284.53" y="-68.3" font-family="Times,serif" font-size="14.00">diagrams</text>
</g>
<!-- panda&#45;&gt;diagrams -->
<g id="edge5" class="edge">
<title>panda&#45;&gt;diagrams</title>
<path fill="none" stroke="black" d="M189.61,-72C199.1,-72 209.53,-72 219.88,-72"/>
<polygon fill="black" stroke="black" points="220.16,-75.5 230.16,-72 220.16,-68.5 220.16,-75.5"/>
</g>
</g>
</svg>
